<?xml version="1.0" standalone="no"?>
<!DOCTYPE svg PUBLIC "-//W3C//DTD SVG 20010904//EN"
 "http://www.w3.org/TR/2001/REC-SVG-20010904/DTD/svg10.dtd">
<svg version="1.0" xmlns="http://www.w3.org/2000/svg"
 width="458.000000pt" height="458.000000pt" viewBox="0 0 458.000000 458.000000"
 preserveAspectRatio="xMidYMid meet">
<metadata>
Created by potrace 1.11, written by Peter Selinger 2001-2013
</metadata>
<g transform="translate(0.000000,458.000000) scale(0.100000,-0.100000)"
fill="#000000" stroke="none">
<path d="M2226 4104 c-38 -57 -162 -223 -205 -274 -33 -39 -33 -40 -101 -135
-120 -169 -201 -350 -217 -488 -21 -181 16 -393 103 -585 13 -29 24 -55 24
-57 0 -2 27 -59 60 -125 52 -107 90 -189 150 -325 24 -53 69 -180 74 -208 3
-12 11 -51 18 -87 25 -115 13 -198 -58 -401 -66 -191 -151 -335 -256 -434 -66
-63 -69 -74 -42 -128 33 -63 113 -117 226 -152 54 -17 57 -20 63 -57 13 -75
97 -168 202 -225 l34 -18 88 91 c58 60 98 112 117 151 27 56 32 61 74 71 160
38 239 103 254 210 2 10 -18 30 -55 53 -98 64 -172 177 -238 364 -52 146 -104
337 -103 375 2 67 25 176 57 280 38 118 34 109 160 395 144 329 187 476 188
654 1 120 -6 188 -28 246 -8 22 -14 46 -15 54 0 20 -75 177 -113 236 -33 52
-157 226 -167 235 -15 12 -225 290 -245 325 -9 15 -16 9 -49 -41z"/>
<path d="M1100 2823 c-275 -44 -501 -330 -501 -633 -1 -94 14 -157 53 -240 70
-145 237 -254 423 -276 28 -4 53 -8 57 -10 4 -3 12 5 18 16 11 21 5 38 -58
150 -46 80 -42 168 10 243 54 77 203 80 358 5 230 -110 403 -319 394 -475 -5
-86 -5 -86 -76 -50 -111 56 -218 42 -285 -37 -88 -105 -87 -267 4 -340 62 -50
173 -69 255 -44 84 25 195 169 253 328 61 167 58 243 -16 485 -95 304 -234
568 -375 709 -69 69 -166 124 -269 151 -59 16 -195 26 -245 18z"/>
<path d="M3349 2826 c-2 -2 -22 -7 -44 -10 -137 -20 -248 -78 -342 -175 -102
-106 -227 -327 -307 -544 -116 -310 -135 -453 -82 -602 37 -105 80 -190 124
-245 74 -92 118 -120 202 -127 143 -13 254 68 264 194 16 213 -189 341 -366
227 -21 -13 -40 -24 -42 -24 -5 0 -15 46 -20 92 -4 35 27 128 60 180 94 149
294 293 460 331 149 34 246 -15 272 -139 13 -59 0 -113 -43 -184 -49 -81 -57
-106 -40 -124 12 -12 24 -12 87 0 89 17 180 49 232 81 118 75 202 202 222 336
40 270 -103 558 -335 676 -70 36 -131 52 -217 56 -45 2 -83 2 -85 1z"/>
</g>
</svg>
